# xmcd
#
# Track frame offsets: 
#        150
#        18474
#        48441
#        71797
#
# Disc length: 1437 seconds
#
# Revision: 0
# Processed by: cddbd v1.5.2PL0 Copyright (c) Steve Scherf et al.
# Submitted via: ExactAudioCopy v0.99pb5
#
DISCID=32059b04
DTITLE=Bähd En Bluh - Bähd
DYEAR=1900
DGENRE=Blues
TTITLE0=I Can Tell
TTITLE1=Blues For Marcy
TTITLE2=Edge Of Sundown
TTITLE3=To My Mother
EXTD=
EXTT0=
EXTT1=
EXTT2=
EXTT3=
PLAYORDER=
